<svg fill="none" height="24" viewBox="0 0 24 24" width="24" xmlns="http://www.w3.org/2000/svg"><path d="m3 10.5v5c0 2.8284 0 4.2426.87868 5.1213s2.29289.8787 5.12132.8787h6c2.8284 0 4.2426 0 5.1213-.8787s.8787-2.2929.8787-5.1213v-5" stroke="#2a353d" stroke-linecap="round" stroke-width="1.5"/><path d="m15 17c-.6841.6072-1.7732 1-3 1s-2.31591-.3928-3-1" stroke="#2a353d" stroke-linecap="round" stroke-width="1.5"/><path d="m2.91199 5.23509-.71393-.22979zm-.68372 2.12424.71392.22979zm18.85973-2.12424-.7139.22979zm.6837 2.12424.714-.22979zm-12.11535 2.41383c-.29101-.29475-.76588-.29778-1.06063-.00676-.29476.291-.29779.7659-.00677 1.0606zm5.75485-.00055c-.291-.29483-.7658-.29797-1.0607-.00702-.2948.29091-.2979.76581-.007 1.06061zm-13.03587-.20257.608-.43913zm8.49737-.88186c.1039-.40096-.1369-.81026-.5378-.91419-.401-.10393-.81029.13686-.91422.53783zm5.754 0c.1039-.40096-.1368-.81026-.5378-.91419s-.8103.13686-.9142.53783zm4.998.88186-.608-.43913zm.3488-.86337-.741-.11564zm-19.947 0-.74103.11564zm2.02857-5.82915-.44862-.60103zm-1.85701 2.12778-.68372 2.12424 1.42785.45958.68373-2.12424zm18.17604.45958.6837 2.12424 1.4279-.45958-.6838-2.12424zm-13.79788-2.21488h10.84758v-1.5h-10.84758zm5.42308 7.5c-.9189 0-1.7475-.3738-2.34295-.97684l-1.0674 1.05384c.86679.878 2.07565 1.423 3.41035 1.423zm5.7554 0c-.9192 0-1.7481-.374-2.3435-.97739l-1.0677 1.05359c.8669.8784 2.0761 1.4238 3.4112 1.4238zm-11.5094 0c-1.23418 0-2.57502-.668-3.26197-1.61909l-1.216.87829c.98415 1.3626 2.7887 2.2408 4.47797 2.2408zm3.17538-2.43818c-.36272 1.39934-1.64515 2.43818-3.17538 2.43818v1.5c2.22382 0 4.0957-1.5107 4.6274-3.56182zm5.75402 0c-.3627 1.39934-1.6451 2.43818-3.1754 2.43818v1.5c2.2238 0 4.0958-1.5107 4.6274-3.56182zm5.842.81909c-.687.95109-2.0278 1.61909-3.262 1.61909v1.5c1.6893 0 3.4938-.8782 4.478-2.2408zm.0411-1.54179c.1871.58128.2199.71226.1747 1.00191l1.482.23128c.1063-.68081-.0459-1.12457-.2288-1.69277zm1.1749 2.42008c.0847-.11731.2-.27272.2916-.47874.0927-.20854.1474-.43372.1902-.70815l-1.482-.23128c-.0329.21081-.0616.29126-.0789.33008-.0183.04133-.0396.07498-.1369.2098zm-.4308-5.0039c-.2072-.64393-.3805-1.18573-.571-1.60977-.1976-.44008-.4438-.82529-.8373-1.11904l-.8973 1.20205c.1122.08377.2252.21732.3664.53164.1484.33036.2938.77859.5114 1.4547zm-4.3781-1.7553c.6897 0 1.1417.00121 1.4867.042.3241.03833.4758.10442.5858.18654l.8973-1.20205c-.3958-.29539-.8329-.41806-1.307-.47411-.4533-.05359-1.0089-.05238-1.6628-.05238zm-15.90946 3.87954c-.18289.5682-.33511 1.01196-.22887 1.69277l1.48206-.23128c-.0452-.28966-.01243-.42063.17466-1.00191zm1.46899 2.00137c-.09737-.13482-.11859-.16847-.13697-.2098-.01725-.03882-.04593-.11927-.07883-.33008l-1.48206.23128c.04283.27443.09753.49961.19024.70815.09159.20602.20692.36143.29162.47874zm.64259-3.66603c.21762-.67611.36303-1.12434.51143-1.4547.14119-.31432.25413-.44787.36635-.53164l-.89725-1.20205c-.39354.29375-.63971.67896-.83739 1.11904-.19048.42404-.36374.96584-.571 1.60977zm2.9503-3.71488c-.65392 0-1.20956-.00121-1.66282.05238-.47408.05605-.91122.17872-1.30695.47411l.89725 1.20205c.11003-.08212.26166-.14821.58582-.18654.34497-.04079.79703-.042 1.4867-.042z" fill="#2a353d"/></svg>